<?xml version="1.0" encoding="utf-8"?>
<!-- Generator: Adobe Illustrator 24.3.0, SVG Export Plug-In . SVG Version: 6.00 Build 0)  -->
<svg version="1.1" id="Logo_00000158727625646119494500000015711314265259652764_"
    xmlns="http://www.w3.org/2000/svg" xmlns:xlink="http://www.w3.org/1999/xlink" x="0px" y="0px"
    viewBox="0 0 700 700"
    style="enable-background:new 0 0 700 700;" xml:space="preserve">
<style type="text/css">
	.st0{fill:#FFFFFF;}
	.st1{fill:none;}
</style>
<g id="Logo">
	<path id="Initiator" class="st0" d="M600,350c0-138.1-111.9-250-250-250S100,211.9,100,350c0,117.2,80.7,215.6,189.6,242.6V426.4
		h-51.6V350h51.6v-32.9c0-85.1,38.5-124.5,122-124.5c15.8,0,43.2,3.1,54.3,6.2V268c-5.9-0.6-16.1-0.9-28.9-0.9
		c-41,0-56.8,15.5-56.8,55.9v27h81.7l-14,76.4h-67.6v171.8C504.1,583.2,600,477.8,600,350z"/>
	<path id="F" class="st1" d="M447.9,426.4l14-76.4h-81.7v-27c0-40.4,15.8-55.9,56.8-55.9c12.7,0,23,0.3,28.9,0.9v-69.3
		c-11.2-3.1-38.5-6.2-54.3-6.2c-83.5,0-122,39.4-122,124.5V350h-51.6v76.4h51.6v166.2c19.3,4.8,39.6,7.4,60.4,7.4
		c10.3,0,20.4-0.6,30.3-1.8V426.4H447.9z"/>
</g>
</svg>