<?xml version="1.0" encoding="utf-8"?>
<!-- Generator: Adobe Illustrator 24.3.0, SVG Export Plug-In . SVG Version: 6.00 Build 0)  -->
<svg version="1.1" id="Layer_1" xmlns="http://www.w3.org/2000/svg" xmlns:xlink="http://www.w3.org/1999/xlink" x="0px" y="0px"
	 viewBox="0 0 1005 1005" style="enable-background:new 0 0 1005 1005;" xml:space="preserve">
<g>
	<defs>
		<path id="SVGID_1_" d="M336.7,105c-42.6,2-71.7,8.8-97.1,18.8c-26.3,10.3-48.6,24-70.8,46.3c-22.2,22.3-35.9,44.6-46,71
			c-9.9,25.5-16.5,54.6-18.4,97.2c-1.9,42.7-2.3,56.3-2.1,165c0.2,108.7,0.7,122.3,2.7,165c2,42.6,8.8,71.7,18.8,97.1
			c10.3,26.3,24,48.6,46.3,70.8c22.3,22.2,44.6,35.8,71,46c25.5,9.8,54.6,16.5,97.2,18.4c42.7,1.9,56.3,2.3,165,2.1
			c108.7-0.2,122.4-0.7,165.1-2.7c42.6-2,71.7-8.9,97.1-18.8c26.3-10.3,48.6-24,70.8-46.3c22.2-22.3,35.8-44.6,46-71
			c9.9-25.5,16.6-54.6,18.4-97.2c1.9-42.7,2.3-56.4,2.1-165.1c-0.2-108.7-0.7-122.3-2.7-165c-2-42.6-8.8-71.7-18.8-97.1
			c-10.3-26.3-24-48.6-46.3-70.8c-22.3-22.2-44.6-35.9-71-46c-25.5-9.9-54.6-16.6-97.2-18.4c-42.7-1.9-56.3-2.3-165-2.1
			C393,102.4,379.4,102.9,336.7,105 M341.4,828.6c-39-1.7-60.2-8.2-74.3-13.6c-18.7-7.2-32-15.9-46.1-29.9c-14-14-22.7-27.3-30-46
			c-5.5-14.1-12.1-35.3-13.9-74.3c-2-42.2-2.4-54.9-2.6-161.7c-0.2-106.9,0.2-119.5,2-161.8c1.7-39,8.2-60.2,13.6-74.3
			c7.2-18.7,15.9-32,29.9-46.1c14-14,27.3-22.7,46-30c14.1-5.5,35.3-12.1,74.3-13.9c42.2-2,54.9-2.4,161.7-2.6
			c106.9-0.2,119.5,0.2,161.8,2c39,1.7,60.2,8.2,74.3,13.6c18.7,7.2,32.1,15.9,46.1,29.9c14,14,22.7,27.3,30,46
			c5.5,14.1,12.1,35.3,13.9,74.3c2,42.2,2.5,54.9,2.7,161.7c0.2,106.9-0.2,119.5-2,161.8c-1.7,39-8.2,60.2-13.6,74.4
			c-7.2,18.7-15.9,32-29.9,46.1c-14,14-27.3,22.7-46,30c-14.1,5.5-35.3,12.1-74.3,13.9c-42.2,2-54.9,2.4-161.8,2.6
			C396.3,830.9,383.6,830.5,341.4,828.6 M667.7,288.5c0.1,26.5,21.6,48,48.1,47.9c26.5-0.1,48-21.6,48-48.1
			c-0.1-26.5-21.6-48-48.1-47.9S667.7,262,667.7,288.5 M297,502.9c0.2,113.5,92.4,205.4,205.9,205.1
			c113.5-0.2,205.4-92.4,205.2-205.9c-0.2-113.5-92.4-205.4-206-205.1C388.6,297.2,296.7,389.4,297,502.9 M369.1,502.7
			c-0.1-73.7,59.5-133.5,133.2-133.7c73.7-0.1,133.6,59.5,133.7,133.2c0.1,73.7-59.5,133.5-133.2,133.7
			C429.1,636.1,369.2,576.4,369.1,502.7"/>
	</defs>
	<use xlink:href="#SVGID_1_"  style="overflow:visible;fill:#FFFFFF;"/>
	<clipPath id="SVGID_2_">
		<use xlink:href="#SVGID_1_"  style="overflow:visible;"/>
	</clipPath>
</g>
</svg>
