<svg id="Vrstva_1" data-name="Vrstva 1" xmlns="http://www.w3.org/2000/svg" viewBox="0 0 30 30"><path d="M14.72,6c5.94.2,10.38,2.58,13.52,7.33a1.41,1.41,0,0,1-.33,2,1.38,1.38,0,0,1-2-.47A7.75,7.75,0,0,0,25,13.58c-3.17-3.52-7-5.11-11.4-4.63a12.46,12.46,0,0,0-9.38,5.74,1.54,1.54,0,0,1-1.45.86,1.38,1.38,0,0,1-1.06-2.17,21.31,21.31,0,0,1,1.89-2.45A15.06,15.06,0,0,1,12,6.33C13,6.15,14,6.09,14.72,6Z" fill="#212121"/><path d="M15,12.44a9.17,9.17,0,0,1,7.7,4.18,1.41,1.41,0,1,1-2.31,1.61,7.23,7.23,0,0,0-2.11-2.05,6.43,6.43,0,0,0-7.81,1c-.33.36-.63.76-.93,1.15a1.41,1.41,0,0,1-2,.4,1.39,1.39,0,0,1-.34-2A9.17,9.17,0,0,1,15,12.44Z" fill="#212121"/><path d="M15.67,23.91a2.33,2.33,0,0,1-2.85-3,2.25,2.25,0,0,1,1.44-1.41,2.32,2.32,0,1,1,1.41,4.42Z" fill="#212121"/><rect width="30" height="30" fill="none"/></svg>