<svg id="Vrstva_1" data-name="Vrstva 1" xmlns="http://www.w3.org/2000/svg" viewBox="0 0 29 27.78"><path d="M15,3.11l3.86,7.83,8.64,1.25-6.25,6.1,1.48,8.6L15,22.83,7.27,26.89l1.48-8.6L2.5,12.19l8.64-1.25L15,3.11m0-2a2,2,0,0,0-1.79,1.12L9.81,9.11l-7.6,1.1A2,2,0,0,0,1.1,13.63L6.6,19,5.3,26.55a2,2,0,0,0,2,2.34,2.1,2.1,0,0,0,.94-.23L15,25.09l6.79,3.57a2.1,2.1,0,0,0,.94.23,2,2,0,0,0,2-2.34L23.4,19l5.5-5.35a2,2,0,0,0-1.11-3.42l-7.6-1.1-3.4-6.88A2,2,0,0,0,15,1.11Z" transform="translate(-0.5 -1.11)" fill="#212121"/></svg>